<svg width="24" height="24" viewBox="0 0 24 24" fill="none" xmlns="http://www.w3.org/2000/svg">
<g clip-path="url(#clip0_52_5247)">
<path d="M7.23543 10.085L11.8963 5.42436L16.5595 10.0875L19.2715 7.37547L11.8963 0L4.52344 7.37301L7.23543 10.085Z" fill="#F3BA2F"/>
<path d="M5.32132 11.9995L2.60938 9.2876L-0.102704 11.9997L2.60924 14.7116L5.32132 11.9995Z" fill="#F3BA2F"/>
<path d="M7.2355 13.9149L11.8963 18.5755L16.5594 13.9126L19.2729 16.6231L19.2716 16.6246L11.8963 23.9999L4.52332 16.6271L4.51953 16.6233L7.2355 13.9149Z" fill="#F3BA2F"/>
<path d="M21.1864 14.7131L23.8984 12.001L21.1865 9.28903L18.4744 12.0011L21.1864 14.7131Z" fill="#F3BA2F"/>
<path d="M14.6487 11.9986H14.6498L11.8978 9.24658L9.86409 11.2803H9.8639L9.63037 11.5141L9.14832 11.9961L9.14453 11.9999L9.14832 12.0039L11.8978 14.7534L14.6498 12.0014L14.6512 11.9999L14.6487 11.9986Z" fill="#F3BA2F"/>
</g>
<defs>
<clipPath id="clip0_52_5247">
<rect width="24" height="24" fill="white"/>
</clipPath>
</defs>
</svg>
